<svg width="23" height="13" viewBox="0 0 23 13" fill="white" xmlns="http://www.w3.org/2000/svg">
<path d="M18.3 6.3C18.3 6.3 21.2 2.2 21.5 0.9C21.6 0.4 21.4 0.2 20.9 0.2H18.4C17.8 0.2 17.6 0.399999 17.4 0.799999C17.4 0.799999 16 3.7 14.4 5.5C13.9 6.1 13.6 6.3 13.3 6.3C13.1 6.3 13 6.1 13 5.6V0.9C13 0.2 12.9 0.0999994 12.4 0.0999994H8.4C8.1 0.0999994 7.9 0.3 7.9 0.5C7.9 1.1 8.8 1.3 8.8 2.9V6.3C8.8 7 8.8 7.3 8.4 7.3C7.5 7.3 5.5 4.3 4.3 0.9C4.1 0.2 3.8 0 3.2 0H0.6C0.2 0 0 0.199999 0 0.599999C0 1.3 0.8 4.4 3.9 8.5C6 11.3 8.7 12.8 11.2 12.8C12.7 12.8 13.1 12.6 13.1 11.9V9.7C13.1 9.2 13.3 8.9 13.6 8.9C13.9 8.9 14.6 9 16 10.4C17.7 12 17.8 12.7 18.7 12.7H21.5C21.8 12.7 22.1 12.6 22.1 12.1C22.1 11.5 21.3 10.3 20 9C19.5 8.3 18.6 7.6 18.4 7.2C17.9 6.9 18 6.7 18.3 6.3Z"/>
</svg>
