<svg width="151" height="46" viewBox="0 0 151 46" fill="#8166EF" xmlns="http://www.w3.org/2000/svg">
<path d="M23.7575 22.3773C24.8369 17.9267 25.9162 13.399 26.9956 8.79431C29.3942 8.49474 31.7928 8.2123 34.1914 7.94697C31.7928 16.3347 29.3942 24.4315 26.9956 32.2372C24.8968 32.6823 22.798 33.1359 20.6993 33.5981C19.5 29.7723 18.3006 25.8523 17.1013 21.8381C15.902 26.3316 14.7027 30.7993 13.5034 35.2414C11.3971 35.7378 9.29461 36.23 7.19583 36.7178C4.79722 29.0405 2.39861 21.1919 0 13.1722C2.39861 12.7614 4.79722 12.3463 7.19583 11.9269C8.2752 16.2577 9.35458 20.5414 10.434 24.7781C11.6033 20.1477 12.7763 15.4788 13.9532 10.7714C16.0445 10.4291 18.1432 10.091 20.2495 9.75719C21.4113 14.0538 22.5807 18.2605 23.7575 22.3773Z" />
<path d="M55.2392 28.0648C52.9568 29.6054 50.1347 30.1317 46.7841 29.9905C43.4223 30.1189 40.6002 29.4513 38.329 27.731C36.0129 25.8951 34.866 23.3402 34.866 20.0279C34.866 16.6257 36.0129 13.5317 38.329 10.8099C40.6339 8.06252 43.4561 6.59894 46.7841 6.54759C50.1122 6.5861 52.9231 8.07536 55.2392 10.8998C57.5442 13.7243 58.7022 16.9467 58.7022 20.4644C58.7022 23.8666 57.5442 26.3958 55.2392 28.0648ZM41.6121 19.5272C41.6121 21.0678 42.1069 22.2746 43.0963 23.1733C44.0857 24.0592 45.3112 24.4828 46.7841 24.4957C48.2458 24.5342 49.4826 24.149 50.472 23.2889C51.4614 22.4415 51.9562 21.2476 51.9562 19.6941C51.9562 18.115 51.4614 16.7413 50.472 15.65C49.4826 14.5459 48.2458 13.9682 46.7841 13.9553C45.3112 13.9425 44.0857 14.4946 43.0963 15.5601C42.1069 16.6257 41.6121 17.9609 41.6121 19.5272Z" />
<path d="M81.7626 36.0888C79.4802 38.2071 76.6693 38.528 73.3075 37.1929C69.9457 35.8705 67.1348 33.6109 64.8524 30.4912C62.5475 27.5127 61.3894 24.3801 61.3894 20.9009C61.3894 17.319 62.5475 14.3533 64.8524 12.0167C67.1573 9.65448 69.9794 8.71728 73.3075 9.25649C76.6356 9.82138 79.4577 11.6829 81.7626 14.8669C84.0675 18.1021 85.2256 21.8253 85.2256 26.0363C85.2256 30.3628 84.0675 33.7778 81.7626 36.0888ZM68.1355 22.2233C68.1355 23.9693 68.6302 25.5099 69.6197 26.8708C70.6091 28.2445 71.8346 29.156 73.3075 29.5797C74.7804 30.0162 76.006 29.7851 76.9954 28.8607C77.9848 27.9107 78.4795 26.4856 78.4795 24.5599C78.4795 22.6598 77.9848 20.9908 76.9954 19.5914C76.006 18.2049 74.7804 17.3832 73.3075 17.1008C71.8346 16.8311 70.6091 17.1778 69.6197 18.1535C68.6302 19.1035 68.1355 20.4644 68.1355 22.2233Z" />
<path d="M102.473 12.8256C105.419 12.8641 107.949 14.2763 110.074 17.1008C112.176 19.9252 113.222 23.52 113.222 27.962C113.222 32.5839 112.176 36.6922 110.074 40.2484C107.982 43.9459 105.441 45.9358 102.473 46C99.5723 45.7946 97.3349 44.0101 95.772 40.9032C95.772 41.9816 95.772 43.0643 95.772 44.1513C93.5233 43.5949 91.2746 42.9744 89.0259 42.2897C89.0334 28.0391 89.0371 14.5673 89.0371 1.87441C91.2858 2.17397 93.5345 2.45214 95.7832 2.7089C95.7832 6.96269 95.7832 11.3406 95.7832 15.8426C97.3461 13.7114 99.5835 12.7229 102.473 12.8256ZM97.2561 33.5339C98.2793 35.0874 99.5723 35.9347 101.124 36.0374C102.687 36.1144 103.957 35.4083 104.947 33.9576C105.97 32.5197 106.476 30.6324 106.476 28.283C106.476 25.9978 105.97 24.1876 104.947 22.878C103.957 21.5557 102.687 20.8881 101.124 20.8239C99.5723 20.7469 98.2793 21.3118 97.2561 22.5314C96.2667 23.751 95.772 25.4842 95.772 27.7566C95.772 30.0804 96.2667 32.0061 97.2561 33.5339Z" />
<path d="M123.791 41.5964C121.542 42.1356 119.293 42.6577 117.045 43.1627C117.045 28.2787 117.045 14.1436 117.045 0.757466C119.293 0.509257 121.542 0.256768 123.791 0C123.791 13.4718 123.791 27.3372 123.791 41.5964Z" />
<path d="M150.73 27.6154C145.408 27.701 140.086 28.0434 134.764 28.6425C135.506 31.0433 137.305 31.9933 140.161 31.5568C141.983 31.3129 143.422 30.5297 144.468 29.1945C146.274 30.1617 148.077 31.116 149.876 32.0575C147.683 35.2928 144.411 37.4496 140.071 38.3997C136.316 39.2984 133.292 38.6693 130.987 36.3969C128.738 34.0218 127.614 30.6196 127.614 26.3059C127.614 22.0949 128.715 18.4616 130.942 15.4189C133.19 12.4147 136.069 10.7843 139.577 10.5788C142.837 10.489 145.558 11.9526 147.717 14.8797C149.898 17.7812 151 21.1705 151 24.8808C151 25.8822 150.899 26.7938 150.73 27.6154ZM134.629 22.5828C137.853 22.3174 141.076 22.1248 144.299 22.005C143.636 19.2576 142.05 17.8582 139.532 17.9353C136.923 18.0893 135.282 19.6556 134.629 22.5828Z" />
</svg>
